<svg id="Component_40_56" data-name="Component 40 – 56" xmlns="http://www.w3.org/2000/svg" width="48" height="94.399" viewBox="0 0 48 94.399">
  <g id="Group_358" data-name="Group 358" transform="translate(0 0)">
    <g id="Group_356" data-name="Group 356" transform="translate(0 0)">
      <g id="Group_353" data-name="Group 353" transform="translate(14.695 29.364)">
        <path id="Path_168" data-name="Path 168" d="M396.112,442.186l1.3,33.149h-.158l-4.479-42.085h-8.614v48.224h5.752l-.1-8.936-1.187-33.131h.179l4.415,42.067h8.627V433.25h-5.822Z" transform="translate(-384.165 -433.25)"/>
      </g>
      <g id="Group_354" data-name="Group 354" transform="translate(33.682)">
        <path id="Path_169" data-name="Path 169" d="M503.568,258.908h-7.66V336.5h7.66a6.343,6.343,0,0,0,6.657-6.3V265.207A6.343,6.343,0,0,0,503.568,258.908Zm.791,69.108a5.5,5.5,0,0,1-.1,1.335,1.433,1.433,0,0,1-.2.475,1.478,1.478,0,0,1-.27.3,1.137,1.137,0,0,1-.436.214,2.441,2.441,0,0,1-.63.053h-.893l.161-1.767V266.779l-.161-1.767h.893a2.432,2.432,0,0,1,.63.053,1.138,1.138,0,0,1,.436.214,1.474,1.474,0,0,1,.27.3,1.43,1.43,0,0,1,.2.475,5.5,5.5,0,0,1,.1,1.335Z" transform="translate(-495.907 -258.908)"/>
      </g>
      <g id="Group_355" data-name="Group 355" transform="translate(0 47.761)">
        <path id="Path_170" data-name="Path 170" d="M300.264,540.866l-2.694,29.827H302.8l.3-4.375h3.014l.3,4.375h5.233l-2.7-29.827Zm3.143,21.089,1.117-16.161h.177l1.117,16.161Z" transform="translate(-297.57 -540.866)"/>
      </g>
    </g>
    <g id="Group_357" data-name="Group 357" transform="translate(0.257 80.43)" opacity="0">
      <path id="Path_171" data-name="Path 171" d="M300.964,732.943h2.013l1.939,13.635h-1.438l-1.484-11.65h-.028l-1.456,11.65h-1.438Zm.18,8.562h1.687l.165,1.3h-2.019Z" transform="translate(-299.072 -732.776)"/>
      <path id="Path_172" data-name="Path 172" d="M340.152,745.741a1.644,1.644,0,0,1-.788-.622,2.791,2.791,0,0,1-.4-1.085,9.274,9.274,0,0,1-.116-1.586v-6.994a9.274,9.274,0,0,1,.116-1.586,2.789,2.789,0,0,1,.4-1.085,1.642,1.642,0,0,1,.793-.622,3.52,3.52,0,0,1,1.257-.195,3.419,3.419,0,0,1,1.09.158,1.814,1.814,0,0,1,.779.5,2.1,2.1,0,0,1,.455.872,5.07,5.07,0,0,1,.153,1.252v2.393h-1.438v-2.393a2.629,2.629,0,0,0-.07-.728,1.248,1.248,0,0,0-.222-.468.882.882,0,0,0-.339-.26,1.069,1.069,0,0,0-.427-.084,1.033,1.033,0,0,0-.371.06,1.09,1.09,0,0,0-.288.162.653.653,0,0,0-.2.269,1.946,1.946,0,0,0-.111.39,4.2,4.2,0,0,0-.06.5q-.019.278-.019.622v7.476q0,.334.019.617a4.2,4.2,0,0,0,.06.506,1.943,1.943,0,0,0,.111.389.65.65,0,0,0,.2.269,1.1,1.1,0,0,0,.288.162,1.037,1.037,0,0,0,.371.06,1.07,1.07,0,0,0,.427-.083.883.883,0,0,0,.339-.26,1.248,1.248,0,0,0,.222-.473,2.629,2.629,0,0,0,.07-.723v-2.393h1.438v2.393a5.067,5.067,0,0,1-.153,1.252,2.1,2.1,0,0,1-.455.872,1.807,1.807,0,0,1-.779.5,3.421,3.421,0,0,1-1.09.158A3.52,3.52,0,0,1,340.152,745.741Z" transform="translate(-332.045 -731.966)"/>
      <path id="Path_173" data-name="Path 173" d="M376.439,732.943h2.013l1.939,13.635h-1.438l-1.484-11.65h-.028l-1.456,11.65h-1.438Zm.177,8.562h1.694l.162,1.3h-2.015Z" transform="translate(-361.713 -732.776)"/>
      <path id="Path_174" data-name="Path 174" d="M417.086,732.943h2.152a4.4,4.4,0,0,1,.942.093,2.56,2.56,0,0,1,.747.283,1.893,1.893,0,0,1,.547.477,2.5,2.5,0,0,1,.366.686,4.124,4.124,0,0,1,.2.909,9.792,9.792,0,0,1,.06,1.141v6.456a9.7,9.7,0,0,1-.06,1.131,4.038,4.038,0,0,1-.2.9,2.669,2.669,0,0,1-.366.691,1.782,1.782,0,0,1-.547.482,2.727,2.727,0,0,1-.742.283,4.166,4.166,0,0,1-.946.1h-2.152Zm2.087,12.374a2.1,2.1,0,0,0,.478-.051,1.183,1.183,0,0,0,.375-.153.887.887,0,0,0,.269-.278,1.6,1.6,0,0,0,.181-.427,3.484,3.484,0,0,0,.1-.57q.032-.32.033-.738v-6.688q0-.4-.033-.728a3.382,3.382,0,0,0-.1-.575,1.54,1.54,0,0,0-.181-.417.906.906,0,0,0-.269-.274,1.253,1.253,0,0,0-.375-.157,1.923,1.923,0,0,0-.478-.056h-.622v11.112Z" transform="translate(-397.017 -732.776)"/>
      <path id="Path_175" data-name="Path 175" d="M457.725,732.943h4.267v1.317h-2.8v4.749h2.458v1.317h-2.458v4.935H462v1.317h-4.276Z" transform="translate(-430.742 -732.776)"/>
      <path id="Path_176" data-name="Path 176" d="M493.156,732.943h2.263l1.373,11.177h.018l1.382-11.177h2.226v13.635h-1.373v-4.434l.083-7.207h-.037l-1.521,11.641h-1.558l-1.53-11.641h-.028l.1,7.207v4.434h-1.4Z" transform="translate(-460.16 -732.776)"/>
      <path id="Path_177" data-name="Path 177" d="M546.254,741.783l-2.31-8.84h1.475l1.224,4.87.353,1.679h.028l.362-1.679,1.2-4.87h1.438l-2.3,8.84v4.8h-1.466Z" transform="translate(-502.307 -732.776)"/>
    </g>
  </g>
</svg>
