<svg id="Group_358" data-name="Group 358" xmlns="http://www.w3.org/2000/svg" width="63.757" height="125.387" viewBox="0 0 63.757 125.387">
  <g id="Group_356" data-name="Group 356" transform="translate(0 0)">
    <g id="Group_353" data-name="Group 353" transform="translate(19.572 39.404)">
      <path id="Path_168" data-name="Path 168" d="M399.96,445.065l1.724,43.826h-.208l-5.922-55.641H384.165v63.756h7.6l-.13-11.815-1.569-43.8h.236l5.838,55.617h11.406V433.25h-7.7Z" transform="translate(-384.165 -433.25)" fill="#fff"/>
    </g>
    <g id="Group_354" data-name="Group 354" transform="translate(44.827)">
      <path id="Path_169" data-name="Path 169" d="M506.035,258.908H495.907v103.16h10.128c5.055,0,8.8-3.637,8.8-8.375v-86.41C514.837,262.545,511.09,258.908,506.035,258.908Zm1.046,91.886a7.357,7.357,0,0,1-.13,1.775,1.911,1.911,0,0,1-.265.632,1.963,1.963,0,0,1-.357.4,1.5,1.5,0,0,1-.577.285,3.21,3.21,0,0,1-.833.07h-1.181l.212-2.349V269.373l-.212-2.349h1.181a3.2,3.2,0,0,1,.833.07,1.5,1.5,0,0,1,.577.284,1.957,1.957,0,0,1,.357.4,1.908,1.908,0,0,1,.265.631,7.358,7.358,0,0,1,.13,1.775Z" transform="translate(-495.907 -258.908)" fill="#fff"/>
    </g>
    <g id="Group_355" data-name="Group 355" transform="translate(0 63.727)">
      <path id="Path_170" data-name="Path 170" d="M301.132,540.866,297.57,580.3h6.918l.4-5.784h3.985l.4,5.784h6.918l-3.563-39.434Zm4.155,27.882,1.477-21.366H307l1.477,21.366Z" transform="translate(-297.57 -540.866)" fill="#fff"/>
    </g>
  </g>
  <g id="Group_357" data-name="Group 357" transform="translate(0.339 106.918)">
    <path id="Path_171" data-name="Path 171" d="M301.574,732.943h2.661L306.8,750.97h-1.9l-1.962-15.4H302.9l-1.925,15.4h-1.9Zm.238,11.319h2.231l.219,1.717h-2.669Z" transform="translate(-299.072 -732.722)" fill="#fff"/>
    <path id="Path_172" data-name="Path 172" d="M340.573,750.178a2.174,2.174,0,0,1-1.042-.822,3.69,3.69,0,0,1-.534-1.435,12.261,12.261,0,0,1-.153-2.1v-9.247a12.262,12.262,0,0,1,.153-2.1,3.688,3.688,0,0,1,.534-1.435,2.171,2.171,0,0,1,1.048-.822,4.656,4.656,0,0,1,1.661-.257,4.523,4.523,0,0,1,1.441.209,2.4,2.4,0,0,1,1.03.662,2.778,2.778,0,0,1,.6,1.153,6.7,6.7,0,0,1,.2,1.656v3.164h-1.9v-3.164a3.474,3.474,0,0,0-.092-.963,1.651,1.651,0,0,0-.294-.619,1.165,1.165,0,0,0-.448-.343,1.411,1.411,0,0,0-.564-.11,1.366,1.366,0,0,0-.49.08,1.441,1.441,0,0,0-.38.214.863.863,0,0,0-.264.356,2.572,2.572,0,0,0-.147.515,5.549,5.549,0,0,0-.08.662q-.025.368-.025.822v9.884q0,.442.025.816a5.558,5.558,0,0,0,.08.668,2.57,2.57,0,0,0,.147.515.859.859,0,0,0,.264.356,1.455,1.455,0,0,0,.38.215,1.371,1.371,0,0,0,.49.08,1.414,1.414,0,0,0,.564-.11,1.167,1.167,0,0,0,.448-.343,1.649,1.649,0,0,0,.294-.626,3.475,3.475,0,0,0,.092-.956v-3.164h1.9v3.164a6.7,6.7,0,0,1-.2,1.656,2.774,2.774,0,0,1-.6,1.153,2.39,2.39,0,0,1-1.03.662,4.523,4.523,0,0,1-1.441.209A4.653,4.653,0,0,1,340.573,750.178Z" transform="translate(-329.855 -731.966)" fill="#fff"/>
    <path id="Path_173" data-name="Path 173" d="M377.049,732.943h2.661l2.563,18.027h-1.9l-1.962-15.4h-.037l-1.925,15.4h-1.9Zm.234,11.319h2.239l.214,1.717h-2.664Z" transform="translate(-357.489 -732.722)" fill="#fff"/>
    <path id="Path_174" data-name="Path 174" d="M417.086,732.943h2.845a5.826,5.826,0,0,1,1.245.122,3.388,3.388,0,0,1,.987.374,2.5,2.5,0,0,1,.723.631,3.307,3.307,0,0,1,.485.908,5.453,5.453,0,0,1,.27,1.2,12.946,12.946,0,0,1,.08,1.508v8.536a12.827,12.827,0,0,1-.08,1.5,5.341,5.341,0,0,1-.27,1.2,3.53,3.53,0,0,1-.485.914,2.355,2.355,0,0,1-.723.638,3.606,3.606,0,0,1-.981.374,5.506,5.506,0,0,1-1.251.129h-2.845Zm2.759,16.359a2.786,2.786,0,0,0,.632-.067,1.565,1.565,0,0,0,.5-.2,1.173,1.173,0,0,0,.356-.368,2.117,2.117,0,0,0,.239-.564,4.61,4.61,0,0,0,.135-.754q.042-.424.043-.975v-8.842q0-.527-.043-.962a4.472,4.472,0,0,0-.135-.761,2.035,2.035,0,0,0-.239-.552,1.2,1.2,0,0,0-.356-.362,1.659,1.659,0,0,0-.5-.208,2.545,2.545,0,0,0-.632-.074h-.822V749.3Z" transform="translate(-390.413 -732.722)" fill="#fff"/>
    <path id="Path_175" data-name="Path 175" d="M457.725,732.943h5.641v1.742h-3.7v6.279h3.25V742.7h-3.25v6.524h3.716v1.741h-5.654Z" transform="translate(-421.867 -732.722)" fill="#fff"/>
    <path id="Path_176" data-name="Path 176" d="M493.156,732.943h2.992l1.815,14.777h.024l1.827-14.777h2.944V750.97h-1.815v-5.862l.11-9.529H501l-2.012,15.391h-2.06L494.91,735.58h-.037l.135,9.529v5.862h-1.852Z" transform="translate(-449.29 -732.722)" fill="#fff"/>
    <path id="Path_177" data-name="Path 177" d="M547,744.63l-3.053-11.687h1.95l1.618,6.438.466,2.22h.037l.478-2.22,1.582-6.438h1.9l-3.041,11.687v6.34H547Z" transform="translate(-488.599 -732.722)" fill="#fff"/>
  </g>
</svg>
